<?xml version="1.0" encoding="utf-8"?>
<!-- Generator: Adobe Illustrator 27.5.0, SVG Export Plug-In . SVG Version: 6.00 Build 0)  -->
<svg version="1.1" xmlns="http://www.w3.org/2000/svg" xmlns:xlink="http://www.w3.org/1999/xlink" x="0px" y="0px"
	 viewBox="0 0 500 500" style="enable-background:new 0 0 500 500;" xml:space="preserve">
<g id="BACKGROUND">
	<rect style="fill:#FFFFFF;" width="500" height="500"/>
</g>
<g id="OBJECTS">
	<path style="fill:#222220;" d="M244.076,306.425c0.122,0.097,0.11,0.127-0.038,0.089c-4.189-1.046-8.188-2.851-11.998-5.414
		c-0.124-0.085-0.294-0.053-0.379,0.071c-0.01,0.014-0.018,0.03-0.025,0.046c-3.155,7.237-6.092,14.559-8.811,21.965
		c-1.134,3.099-2.199,6.04-3.196,8.825c-4.828,13.497-8.59,26.526-11.288,39.089c-3.268,15.213-4.76,30.604-4.479,46.171
		c0.163,9.042,1.117,17.569,2.862,25.583c1.661,7.607,4.446,14.77,8.355,21.49c1.795,3.083,3.949,5.888,6.462,8.416
		c0.11,0.113,0.086,0.172-0.071,0.179c-2.321,0.11-4.231,0.077-5.729-0.099c-13.186-1.554-25.724-5.273-37.614-11.156
		c-12.901-6.385-24.628-14.469-35.179-24.253c-6.325-5.862-11.775-12.043-16.349-18.544c-0.846-1.206-1.694-2.54-2.543-3.983
		c-3.657-4.529-6.958-9.355-9.831-14.426c-3.329-5.881-6.12-12.069-8.271-18.462c-2.139-6.393-3.696-12.984-4.331-19.67
		c2.262,6.317,4.592,12.507,7.258,18.538c2.318,5.269,4.862,10.414,7.624,15.439c-0.895-3.302-1.611-6.658-2.147-10.067
		c-0.707-4.495-1.279-9.005-1.719-13.53c-0.998-2.045-1.944-4.116-2.793-6.228c-2.157-5.377-3.831-10.951-4.939-16.627
		c-1.097-5.675-1.69-11.451-1.459-17.213c1.427,5.581,2.835,11.062,4.503,16.452c1.268,4.128,2.656,8.202,4.177,12.222
		c0.009-1.992,0.052-3.985,0.168-5.98c0.195-3.365,0.49-6.718,0.849-10.064c-0.61-2.104-1.175-4.221-1.644-6.362
		c-1.304-5.963-2.064-12.048-2.216-18.139c-0.14-6.088,0.269-12.192,1.523-18.132c0.41,6.051,0.855,12,1.606,17.899
		c0.579,4.618,1.315,9.2,2.214,13.747c0.145-0.892,0.274-1.786,0.431-2.677c0.758-4.309,1.717-8.873,2.871-13.682
		c-1.138-6.878-1.676-13.858-1.55-20.816c0.138-7.024,0.892-14.038,2.549-20.839c0,6.994,0.107,13.895,0.588,20.762
		c0.248,3.621,0.589,7.228,1.018,10.821c0.798-2.885,1.684-5.814,2.664-8.792c0.532-1.621,1.086-3.235,1.637-4.849
		c-0.203-2.386-0.347-4.778-0.381-7.173c-0.085-6.123,0.373-12.256,1.417-18.28c1.054-6.018,2.636-11.947,5.003-17.562
		c-0.755,6.041-1.47,11.987-1.889,17.945c-0.36,4.98-0.54,9.954-0.541,14.927c1.476-3.985,3.002-7.952,4.598-11.893
		c0.007-0.021,0.283-0.782,0.823-2.273c0.014-3.037,0.177-6.074,0.489-9.096c0.642-6.211,1.899-12.362,3.792-18.299
		c1.902-5.93,4.389-11.676,7.668-16.938c-1.755,5.939-3.376,11.809-4.636,17.746c-1.27,5.929-2.23,11.895-2.846,17.898
		c1.257-1.761,1.974-2.803,2.149-3.122c1.115-2.018,1.978-4.145,2.589-6.382c0.624-2.299,0.939-3.457,0.945-3.473
		c4.966-16.078,11.27-31.616,18.915-46.613c1.654-3.243,3.507-6.372,5.559-9.389c0.502-0.736,0.381-0.857-0.362-0.362
		c-0.67,0.448-1.324,1.082-1.959,1.903c-1.021,1.322-1.545,1.997-1.57,2.025c-2.512,2.942-5.02,5.887-7.523,8.835
		c-2.262,2.663-4.215,5.113-5.86,7.35c-3.628,4.925-6.781,9.563-9.46,13.915c-2.992,4.862-6.61,11.219-10.856,19.07
		c-8.728,16.144-15.621,33.038-20.677,50.682c-3.8,13.268-6.653,24.822-8.558,34.662c-1.372,7.093-2.434,14.233-3.186,21.42
		c-0.047,0.438-0.164,0.62-0.352,0.545c-0.116-0.049-0.191-0.199-0.188-0.376c0.332-14.534,1.695-28.959,4.088-43.276
		c0.483-2.879,1.07-5.957,1.762-9.234c2.525-11.958,5.42-23.425,8.685-34.399c2.14-7.203,4.831-14.665,8.073-22.388
		c5.373-12.801,12.306-25.203,20.799-37.205c3.885-5.492,7.168-9.847,9.85-13.064c7.531-9.042,15.556-17.618,24.075-25.729
		c7.137-6.795,15.271-13.426,24.404-19.892c2.174-1.538,4.074-2.834,5.7-3.886c1.047-0.677,3.003-1.886,5.87-3.628
		c17.134-10.401,35.472-17.969,55.015-22.703c3.49-0.846,7.027-1.515,10.611-2.007c0.307-0.044,0.377,0.066,0.211,0.329
		c-1.232,1.927-2.693,3.73-4.385,5.409c-1.592,1.582-3.119,3.224-4.582,4.925c-4.712,5.467-7.337,11.822-7.876,19.065
		c-0.219,2.976,0.122,5.86,1.024,8.652c0.401,1.231,0.901,2.193,1.499,2.885c0.768,0.89,1.692,1.52,2.773,1.889
		c0.438,0.148,0.673,0.621,0.526,1.056c-0.003,0.008-0.006,0.016-0.009,0.025c-1.472,3.922-3.606,7.38-6.4,10.371
		c-0.517,0.551-1.431,1.065-2.74,1.541c-5.58,2.024-10.757,4.388-15.532,7.091c-1.657,0.94-3.805,2.21-6.443,3.811
		c-2.463,1.491-4.549,2.852-6.26,4.084c-9.818,7.071-18.252,15.386-25.301,24.944c-10.664,14.458-19.106,30.261-25.325,47.407
		c-1.024,2.823-2.052,5.782-3.083,8.877c-1.313,3.951-2.447,7.755-3.402,11.415c-1.288,4.928-2.312,8.821-3.073,11.678
		c-2.625,9.872-4.677,19.856-6.156,29.954c-0.529,3.622-0.948,6.728-1.255,9.319c-1.056,8.973-1.477,18.462-1.264,28.469
		c0.11,5.213,0.381,9.443,0.813,12.688c2.037,15.332,5.965,30.596,11.786,45.79c2.56,6.676,5.387,12.616,8.482,17.82
		c4.421,7.431,9.502,14.377,15.245,20.837c3.806,4.283,7.978,8.172,12.514,11.668c0.144,0.11,0.16,0.094,0.047-0.047
		c-4.157-5.301-8.213-10.68-12.167-16.138c-5.235-7.228-9.493-14.992-12.773-23.295c-6.479-16.407-11.162-32.672-14.051-48.793
		c-1.613-9.023-2.643-19.079-3.087-30.17c-1.012-25.148,2.445-49.848,10.371-74.099c2.491-7.616,5.334-14.595,8.53-20.936
		c8.302-16.47,18.855-31.34,31.659-44.611c4.464-4.627,9.135-9.038,14.013-13.233c2.3-1.977,5.066-4.109,8.299-6.396
		c0.934-0.658,1.928-1.533,2.984-2.627c0.06-0.06,0.116-0.091,0.169-0.094c0.119-0.003,0.13,0.094,0.033,0.291
		c-0.858,1.751-1.625,3.54-2.298,5.367c-0.116,0.31-0.752,2.148-1.908,5.512c-3.192,9.28-5.946,18.995-8.262,29.145
		c-2.766,12.124-3.734,24.261-2.904,36.411c0.232,3.371,0.606,6.479,1.123,9.323c1.773,9.696,5.226,19.026,10.357,27.989
		C240.315,302.753,242.074,304.858,244.076,306.425z M445.485,386.713c-0.408,2.591-1.186,5.28-2.336,8.069
		c-1.626,3.947-3.705,7.663-6.236,11.147c-4.79,6.585-9.62,12.607-14.488,18.064c-2.726,3.058-5.061,5.855-7.007,8.393
		c-0.013,0.016-0.304,0.42-0.874,1.212c-2.256,3.136-5.384,4.806-9.385,5.01c-2.688,0.138-5.296-0.501-7.824-1.917
		c-0.118-0.067-0.267-0.034-0.348,0.075c-0.536,0.746-1.273,1.281-2.213,1.607c-1.438,0.501-2.921,0.728-4.45,0.681
		c-3.227-0.094-6.433-0.412-9.62-0.954c-5.677-0.965-11.134-3.083-16.373-6.354c-1.685-1.049-2.992-2.169-3.919-3.36
		c-1.729-2.218-3.073-4.652-4.032-7.303c-1.36-3.769-2.544-7.593-3.553-11.471c-1.726-6.654-2.501-13.462-2.326-20.423
		c0.013-0.595-0.147-1.14-0.48-1.635c-2.387-3.534-4.959-6.999-7.716-10.395c-8.97-11.043-17.876-22.137-26.721-33.281
		c-1.616-2.036-2.912-3.41-3.887-4.121c-0.52-0.376-1.411-0.559-2.674-0.55c-5.326,0.044-10.652-0.002-15.978-0.136
		c-5.473-0.138-10.561-1.414-15.263-3.83c-2.506-1.288-5.058-3.092-7.655-5.414c-1.3-1.162-2.516-2.387-3.693-3.64
		c-1.464-1.282-3.014-2.512-4.376-3.918c-2.939-2.758-5.506-5.871-7.987-9.064c-1.154-1.649-2.391-3.265-3.437-4.992l-1.61-2.575
		l-1.485-2.647c-0.507-0.879-0.977-1.776-1.413-2.688l-1.344-2.727c-0.79-1.86-1.681-3.693-2.364-5.601l-1.077-2.846l-0.95-2.89
		c-0.665-1.921-1.132-3.897-1.69-5.851c-1.981-7.847-3.072-15.786-3.77-23.613c-0.342-3.912-0.634-7.796-0.773-11.813
		c-0.067-2.002-0.095-4.023-0.053-6.061c0.025-2.036,0.218-4.1,0.334-6.143c0.763-8.174,2.688-16.2,5.667-23.771
		c3.031-7.552,7.186-14.623,12.291-20.827c3.516-4.174,7.498-7.927,11.848-11.076c1.8-2.083,4.065-4.156,6.801-6.217
		c2.854-2.152,5.771-4.218,8.75-6.199c4.395-2.92,8.467-6.239,12.214-9.958c0.414-0.41,0.415-0.539,0.005-0.385
		c-0.066,0.025-0.136,0.061-0.212,0.108c-1.165,0.768-2.277,1.167-3.336,1.198c-1.068,0.035-1.936-0.439-2.603-1.419
		c-0.087-0.126-0.219-0.208-0.362-0.226c-1.087-0.128-2.169-0.28-3.247-0.456c-0.417-0.066-0.47-0.199-0.16-0.399
		c0.085-0.053,0.187-0.088,0.306-0.103c1.457-0.166,2.686-0.561,3.689-1.184c5.163-3.227,9.89-6.997,14.183-11.311
		c0.52-0.523,0.869-1.059,1.048-1.607c0.092-0.281-0.06-0.583-0.339-0.674c-0.003-0.001-0.006-0.002-0.009-0.003
		c-1.686-0.533-1.441-0.814,0.733-0.846c0.297-0.002,0.566-0.179,0.686-0.451c0.122-0.269-0.02-0.481-0.427-0.634
		c-0.138-0.05-0.144-0.111-0.019-0.183c1.2-0.689,2.231-1.563,3.092-2.622c0.808-0.999,1.219-1.507,1.231-1.522
		c0.624-0.705,1.245-1.41,1.866-2.115c0.116-0.132,0.092-0.193-0.071-0.183c-0.141,0.009-0.251,0.041-0.329,0.094
		c-1.92,1.313-3.954,2.416-6.1,3.308c-0.746,0.31-2.364,1.156-4.854,2.538c-1.206,0.667-2.714,1.109-4.525,1.325
		c-0.152,0.018-0.293,0.086-0.399,0.193c-2.682,2.741-5.152,4.781-7.411,6.118c-2.353,1.388-4.735,2.721-7.148,3.999
		c-0.887,0.47-1.812,0.843-2.777,1.118c-1.046,0.298-2.051,0.31-3.012,0.038c-0.912-0.257-1.698-0.796-2.359-1.617
		c-1.306-1.62-1.679-3.573-1.118-5.86c0.927-3.772,2.483-7.267,4.667-10.484c2.043-3.014,3.972-6.098,5.79-9.253
		c1.466-2.55,2.552-5.254,3.257-8.111c0.479-1.939,1.037-3.856,1.673-5.752c0.178-0.53,0.202-1.317,0.07-2.364
		c-0.113-0.893-0.086-1.66,0.08-2.303c0.661-2.55,1.67-4.942,3.026-7.176c1.444-2.378,2.281-3.791,2.509-4.239
		c0.934-1.82,1.845-3.651,2.735-5.493c0.019-0.041,0.784-1.607,2.293-4.699c3.19-6.535,5.678-12.981,7.467-19.338
		c1.156-4.113,2.654-7.914,4.493-11.401c1.413-2.682,3.147-5.284,5.202-7.806c5.301-6.51,11.783-11.662,19.446-15.456
		c0.292-0.144,0.367-0.071,0.226,0.221c-0.46,0.937-0.847,1.913-1.161,2.928c-0.53,1.708-0.799,2.578-0.808,2.613
		c-2.76,8.33-3.267,16.838-1.523,25.522c0.26,1.294,0.771,3.415,1.532,6.363c0.003,0.009,0.497,1.79,1.48,5.343
		c0.874,3.149,1.58,6.336,2.119,9.563c0.313,1.87,0.401,3.799,0.263,5.785c-0.013,0.188,0.063,0.235,0.226,0.141
		c1.908-1.087,3.915-1.878,6.02-2.373c2.534-0.598,5.694-1.167,9.479-1.706c1.664-0.238,3.465-0.749,5.404-1.532
		c2.844-1.15,5.069-3.033,6.673-5.649c3.286-5.36,6.597-10.705,9.93-16.034c4.38-7.002,10.578-11.366,18.596-13.092
		c0.846-0.182,1.485-0.088,1.917,0.282c0.649,0.558,0.772,1.413,0.371,2.566c-2.485,7.124-4.162,14.018-5.033,20.682
		c-0.633,4.85-1.284,8.65-1.955,11.401c-1.143,4.709-2.531,9.341-4.164,13.896c-1.297,3.615-2.579,6.468-3.844,8.557
		c-2.062,3.409-4.585,6.33-7.57,8.764c-0.614,0.498-1.466,0.846-2.557,1.043c-0.154,0.028-0.156,0.06-0.009,0.094
		c3.797,0.89,7.638,1.504,11.523,1.842c2.237,0.197,4.471,0.154,6.702-0.132c0.783-0.1,0.846,0.069,0.188,0.508
		c-2.923,1.949-6.16,3.385-9.709,4.309c-0.408,0.107-1.612,0.157-3.614,0.15c-0.156-0.003-0.175,0.047-0.056,0.15
		c1.504,1.3,2.915,2.696,4.234,4.187c4.164,4.703,9.074,8.412,14.732,11.128c1.626,0.78,3.343,1.211,5.15,1.292
		c0.154,0.006,0.16,0.041,0.019,0.103c-1.651,0.714-3.382,1.07-5.193,1.067c-3.547-0.013-6.444-0.321-8.694-0.926
		c-1.867-0.501-3.504-1.413-4.911-2.735c-0.464-0.435-0.539-0.377-0.226,0.174c1.162,2.046,2.656,3.821,4.483,5.324
		c0.006,0.003,1.119,0.76,3.337,2.27c3.164,2.156,5.678,4.939,7.543,8.351c0.056,0.107,0.107,0.213,0.15,0.32
		c0.511,1.219,0.363,1.292-0.442,0.221c-0.771-1.028-1.618-1.985-2.542-2.871c-1.344-1.291-2.95-2.038-4.817-2.242
		c-0.661-0.072-0.713,0.072-0.155,0.432c2.159,1.407,3.957,3.191,5.395,5.353c0.865,1.297,1.883,3.57,3.055,6.819
		c1.247,3.452,2.509,6.9,3.788,10.343c0.128,0.338,0.056,0.387-0.216,0.146c-1.006-0.896-1.894-1.985-2.664-3.266
		c-0.498-0.833-0.625-0.785-0.381,0.146c0.154,0.58,0.417,1.103,0.789,1.57c1.61,2.008,3.514,3.678,5.71,5.01
		c0.145,0.088,0.137,0.154-0.023,0.197c-0.329,0.088-0.686,0.061-1.071-0.08c-2.594-0.949-4.806-2.456-6.635-4.521
		c-2.068-2.337-3.684-4.482-4.85-6.433c-0.103-0.172-0.201-0.257-0.291-0.254c-0.095,0.005-0.147,0.134-0.118,0.288
		c0.005,0.023,0.011,0.046,0.019,0.069c1.103,3.023,1.654,4.995,1.654,5.917c0,2.741,0.009,5.483,0.028,8.224
		c0.044,5.918,2.002,11.078,5.874,15.48c0.874,0.99,3.562,3.47,8.064,7.439c3.337,2.942,5.762,6.419,7.275,10.433
		c1.071,2.838,1.554,5.644,1.447,8.417c-0.113,2.92-0.816,5.746-2.11,8.478c-0.837,1.764-1.687,3.523-2.552,5.277
		c-1.275,2.585-2.312,5.263-3.111,8.036c-0.88,3.051-1.115,6.159-0.705,9.324c0.492,3.769,1.277,7.475,2.354,11.119
		c1.645,5.555,3.451,11.056,5.418,16.504c1.601,4.433,2.661,7.383,3.181,8.849c1.25,3.528,3.034,8.479,5.353,14.855
		c5.398,14.85,10.376,29.841,14.934,44.973c1.291,4.289,2.91,7.724,4.859,10.306c1.272,1.682,2.312,3.2,3.12,4.554
		c0.836,1.404,1.518,3.097,2.044,5.08c1.206,4.571,1.942,9.319,2.209,14.244C446.051,381.155,445.914,383.972,445.485,386.713z
		 M378.909,162.977c1.087,3.622,2.168,7.246,3.243,10.874c0.044,0.153,0.063,0.15,0.056-0.009
		c-0.175-3.888-1.126-7.569-2.853-11.044c-0.08-0.161-0.2-0.271-0.32-0.291C378.845,162.472,378.803,162.629,378.909,162.977z
		 M369.254,146.221c-1.579-0.921-3.01-2.003-4.283-3.266c-1.29-1.266-2.552-2.812-4.27-3.999c-1.712-1.195-3.816-1.803-5.79-1.578
		c1.838,0.732,3.396,1.716,4.644,2.978c1.267,1.257,2.35,2.802,3.792,4.24c1.456,1.447,3.235,2.585,5.147,3.273
		c1.909,0.688,3.967,0.968,5.927,0.646C372.547,147.877,370.834,147.145,369.254,146.221z M360.169,125.217
		c-2.393-1.383-4.605-3.122-7.028-4.726c-2.404-1.589-5.08-3.107-8.086-3.682c-1.486-0.286-3.024-0.352-4.517-0.112
		c-1.487,0.247-2.925,0.825-4.051,1.749c2.742-0.998,5.555-0.706,8.121,0.119c2.578,0.823,4.904,2.295,7.256,3.851
		c2.348,1.552,4.748,3.251,7.491,4.427c2.695,1.164,5.828,1.84,8.672,1.063C365.125,127.697,362.559,126.602,360.169,125.217z
		 M373.966,98.859c-2.077,2.268-4.602,3.7-7.575,4.295c-1.989,0.398-4.054,0.562-6.194,0.493c-2.109-0.066-4.159-0.528-6.152-1.386
		c-0.855-0.367-0.893-0.296-0.113,0.212c2.203,1.435,4.294,3.235,6.274,5.399c0.096,0.108,0.249,0.147,0.385,0.099
		c2.482-0.915,5.079-2.171,7.792-3.769c2.369-1.394,4.29-3.113,5.766-5.155c0.034-0.05,0.06-0.1,0.075-0.15
		C374.296,98.605,374.21,98.592,373.966,98.859z M339.75,91.241c0.006,0.154,0.146,0.212,0.418,0.174
		c0.267-0.038,0.418-0.058,0.456-0.061c4.179-0.272,8.172-1.283,11.979-3.031c0.163-0.072,0.233-0.028,0.211,0.132
		c-0.038,0.276-0.191,0.495-0.461,0.658c-2.099,1.272-4.088,2.691-5.968,4.258c-1.282,1.068-2.838,1.977-4.671,2.726
		c-0.166,0.069-0.224,0.138-0.174,0.207c0.041,0.061,0.147,0.078,0.258,0.042c1.82-0.567,3.664-0.627,5.531-0.179
		c1.51,0.367,3.036,0.456,4.577,0.268c6.958-0.849,12.204-4.258,15.738-10.226c1.78-3.001,3.002-6.214,3.665-9.638
		c0.658-3.405,1.044-5.483,1.156-6.231c0.579-3.831,1.98-7.483,4.201-10.954c1.413-2.212,2.509-3.844,3.289-4.897
		c0.087-0.12,0.129-0.247,0.118-0.352c-0.025-0.204-0.147-0.182-0.367,0.066c-1.153,1.291-2.226,2.646-3.219,4.065
		c-1.432,2.049-5.348,8.243-11.748,18.581c-2.998,4.84-6.993,8.319-11.983,10.437c-3.744,1.592-7.983,2.821-12.717,3.689
		C339.87,91.006,339.746,91.12,339.75,91.241z M315.238,118.568c0.332-0.082,0.601-0.323,0.719-0.644
		c0.045-0.123,0.093-0.246,0.138-0.369c1.931-1.767,3.96-3.308,6.159-4.52c2.395-1.346,4.908-2.272,7.592-2.895
		c2.677-0.655,5.524-1.135,8.281-2.2c1.371-0.53,2.7-1.216,3.895-2.088c1.185-0.881,2.232-1.972,2.919-3.24
		c-2.153,1.92-4.725,2.922-7.372,3.598c-2.649,0.673-5.44,0.999-8.269,1.686c-2.836,0.654-5.664,1.866-8.026,3.615
		c-1.868,1.36-3.501,3.031-4.759,4.923c2.48-6.666,5.103-13.302,7.881-19.906c1.566-3.722,2.417-7.572,2.552-11.551
		c0.063-1.949-0.136-4.253-0.597-6.913c-0.398-2.287-0.879-4.558-1.443-6.814c-0.103-0.407-0.208-0.52-0.315-0.338
		c-0.043,0.072-0.058,0.164-0.042,0.277c0.467,3.452,0.647,5.783,0.54,6.993c-0.842,9.562-3.228,18.716-7.157,27.463
		c-1.745,3.891-2.981,7.939-3.708,12.143C314.102,118.508,314.439,118.768,315.238,118.568z M308.208,116.745
		c0.285-3.387,0.708-6.758,1.269-10.113c0.012-0.066,0.036-0.133,0.07-0.202c0.1-0.201,0.08-0.279-0.061-0.235
		c-0.082,0.03-0.147,0.107-0.174,0.207c-0.983,3.744-2.097,7.447-3.341,11.109c-0.548,1.623-1.37,3.365-2.467,5.226
		c-1.67,2.841-3.694,5.602-6.072,8.28c-0.194,0.219-0.171,0.246,0.07,0.08c1.645-1.134,3.188-2.342,4.629-3.623
		c1.739-1.548,2.757-2.486,3.055-2.815c0.943-1.046,1.651-2.262,2.124-3.647C307.786,119.627,308.085,118.204,308.208,116.745z
		 M285.254,274.168c6.216,6.139,13.124,11.502,20.36,16.257c4.42,2.897,8.965,5.568,13.594,8.075c0.243,0.238,0.472,0.487,0.72,0.72
		c4.928,4.64,10.226,8.811,15.893,12.514c2.998,1.961,6.017,3.886,9.056,5.776c8.938,5.555,17.187,11.988,24.747,19.3
		c1.604,1.551,2.892,3.189,3.863,4.916c0.285,0.501,0.415,0.464,0.39-0.113c-0.06-1.378-0.215-2.744-0.465-4.098
		c-0.83-4.467-2.002-8.836-3.515-13.106c-1.165-3.296-2.442-6.153-3.83-8.572c-1.98-3.456-4.364-6.64-7.152-9.554
		c-1.256-1.316-2.544-2.298-3.863-2.947c-7.046-3.465-14.689-6.612-22.928-9.441c-0.125-0.043-0.203-0.172-0.183-0.305
		c0.611-4.283,0.962-7.348,1.053-9.197c0.291-5.877-0.362-11.645-1.96-17.303c-1.043-3.684-3.02-6.761-5.931-9.229
		c-3.249-2.754-6.072-4.944-8.468-6.57c-2.829-1.914-5.379-3.966-7.651-6.156c-1.983-1.917-3.99-4.314-6.02-7.19
		c-4.042-5.724-7.414-11.841-10.118-18.351c-0.354-0.858-0.763-1.69-1.226-2.495c-0.621-1.078-1.554-1.715-2.801-1.913
		c-0.147-0.022-0.276-0.072-0.385-0.15c-0.163-0.113-0.141-0.158,0.066-0.136c2.077,0.204,4.612,0.107,7.604-0.291
		c2.535-0.338,5.08-0.5,7.637-0.484c5.1,0.028,9.732,1.479,13.896,4.352c0.548,0.376,0.667,0.342,0.357-0.103
		c-0.04-0.06-0.092-0.116-0.155-0.169c-1.607-1.369-3.144-2.362-4.61-2.979c-3.023-1.269-6.772-2.538-11.246-3.807
		c-1.613-0.457-3.26-0.686-4.939-0.686c-2.193,0-4.386-0.012-6.579-0.037c-0.247-0.003-0.309-0.053-0.183-0.151
		c0.038-0.031,0.085-0.052,0.141-0.061c2.462-0.476,4.916-1.007,7.359-1.593c2.814-0.674,5.663-0.901,8.548-0.681
		c3.96,0.301,7.915,0.652,11.866,1.053c3.612,0.367,7.03,1.335,10.254,2.904c1.056,0.517,2.064,1.137,3.026,1.861
		c0.949,0.721,1.861,1.488,2.735,2.303c2.939,2.751,5.948,5.42,9.028,8.008c1.002,0.843,1.913,1.775,2.73,2.796
		c1.698,2.121,2.317,4.535,1.856,7.242c-0.354,2.093-1.313,3.719-2.876,4.878c-1.466,1.084-3.572,2.397-6.316,3.938
		c-0.135,0.075-0.132,0.143,0.009,0.202l0.512,0.226c0.137,0.061,0.253,0.168,0.329,0.305c0.476,0.88,0.78,1.721,0.912,2.523
		c1.463,8.976,4.38,17.441,8.75,25.395c2.174,3.957,3.869,7.289,5.085,9.995c3.096,6.905,6.681,13.229,10.757,18.971
		c1.579,2.224,3.789,5.143,6.631,8.755c7.842,9.981,12.582,21.31,14.22,33.986c0.21,1.645,0.218,3.169,0.023,4.572
		c-0.21,1.523-0.53,3.025-0.959,4.507c-0.044,0.15,0.001,0.189,0.136,0.117c3.224-1.736,6.752-2.964,10.583-3.684
		c0.281-0.053,0.551,0.131,0.604,0.412c0.012,0.06,0.012,0.121,0.003,0.18c-0.097,0.605-0.382,1.161-0.855,1.668
		c-0.163,0.175-0.133,0.222,0.089,0.141c0.931-0.345,1.485-0.863,1.664-1.555c0.053-0.21,0.038-0.89-0.047-2.04
		c-0.147-2.018-0.45-3.86-0.907-5.526c-3.512-12.716-7.801-25.535-12.867-38.455c-1.692-4.314-2.624-6.678-2.796-7.091
		c-1.043-2.475-2.167-4.759-3.37-6.852c-2.553-4.436-5.941-8.332-10.165-11.687c-3.408-2.713-7.417-6.537-12.026-11.471
		c-4.423-4.739-8.034-10.021-10.839-15.845c0.987,1.265,2.215,2.334,3.582,3.175c3.139,1.909,6.517,2.763,9.335,4.035
		c2.822,1.257,5.429,3.031,7.886,5.129c2.47,2.091,4.748,4.507,7.166,6.982c-1.042-3.303-2.751-6.379-5.001-9.105
		c-2.251-2.713-5.14-5.04-8.487-6.524c-3.344-1.466-6.638-2.044-9.523-3.205c-1.419-0.569-2.793-1.316-3.992-2.309
		c-1.201-0.989-2.224-2.242-2.817-3.879c-0.066,0.453-0.069,0.915-0.023,1.378c-0.238-0.6-0.484-1.194-0.707-1.805
		c-0.129-0.353,0.042-0.745,0.39-0.893c2.638-1.106,4.79-2.73,6.457-4.873c3.108-4.001,3.223-8.098,0.343-12.294
		c-1.046-1.529-2.401-3.04-4.065-4.535c-6.078-5.47-11.956-10.403-17.637-14.798c-1.391-1.075-2.766-1.9-4.126-2.477
		c-1.679-0.711-3.396-1.317-5.15-1.819c-1.99-0.567-3.239-0.948-3.75-1.142c-1.228-0.46-2.428-0.987-3.6-1.579
		c-0.219-0.11-0.207-0.139,0.038-0.089c1.3,0.269,2.603,0.509,3.91,0.719c1.313,0.213,2.632,0.273,3.957,0.179
		c1.767-0.128,3.329-0.293,4.685-0.493c2.071-0.307,4.006-0.542,5.804-0.705c2.306-0.21,4.251-0.345,5.837-0.404
		c5.699-0.213,11.283,0.565,16.753,2.335c1.5,0.486,3.009,0.948,4.525,1.386c0.338,0.097,0.375,0.03,0.108-0.202
		c-1.354-1.169-2.702-2.293-4.046-3.374c-2.287-1.839-4.787-3.243-7.5-4.211c-1.256-0.448-3.05-0.876-5.381-1.283
		c-2.691-0.473-4.524-0.739-5.498-0.799c-2.722-0.166-9.85-0.387-21.382-0.663c-2.998-0.072-5.348-0.399-7.049-0.982
		c-2.425-0.83-4.851-1.657-7.279-2.481c-0.532-0.178-1.081-0.265-1.645-0.258c-0.15,0.003-0.287-0.041-0.381-0.122
		c-0.235-0.21-0.111-0.291,0.371-0.244c0.868,0.091,1.725,0.031,2.571-0.179c6.532-1.62,12.644-4.215,18.337-7.787
		c1.939-1.219,4.009-2.942,6.208-5.169c2.582-2.619,4.477-5.443,5.686-8.473c0.351-0.877,0.716-1.75,1.095-2.617
		c0.025-0.053,0.035-0.107,0.028-0.16c-0.022-0.175-0.103-0.155-0.244,0.061c-2.522,3.86-5.764,6.725-9.728,8.595
		c-1.817,0.858-4.799,1.809-8.948,2.852c-3.806,0.962-7.661,1.689-11.565,2.18c-0.153,0.019-0.175-0.025-0.066-0.132
		c0.648-0.62,1.121-1.233,1.419-1.837c0.633-1.3,1.175-2.76,1.626-4.38c0.357-1.288,0.475-2.359,0.352-3.214
		c-0.16-1.122-0.595-2.151-1.307-3.087c-0.076-0.102-0.222-0.122-0.326-0.045c-0.001,0.001-0.002,0.001-0.003,0.002
		c-3.089,2.381-5.915,5.044-8.477,7.989c-0.95,1.09-1.344,1.017-1.184-0.221c0.041-0.316,0.058-0.598,0.052-0.846
		c-0.078-3.584,0.965-6.779,3.13-9.587c0.094-0.119,0.074-0.143-0.061-0.071c-1.999,1.1-4.088,1.957-6.269,2.571
		c-2.591,0.73-4.176,1.219-4.756,1.466c-2.613,1.106-5.058,2.533-7.336,4.281c-0.075,0.06-0.16,0.102-0.254,0.127
		c-0.094,0.025-0.188,0.05-0.282,0.075c-0.095,0.025-0.152,0.123-0.127,0.218c0.004,0.016,0.01,0.031,0.019,0.045
		c2.29,3.932,4.483,7.919,6.579,11.96c2.663,5.132,4.974,10.419,6.932,15.86c0.548,1.523,0.88,2.982,0.996,4.38
		c0.11,1.3-0.121,2.419-0.691,3.355c-0.614,0.999-1.471,1.839-2.57,2.519c-0.849,0.526-1.491,0.342-1.927-0.555
		c-0.858-1.751-1.507-3.645-1.946-5.682c-0.125-0.583-0.265-0.586-0.418-0.009c-0.786,3.001-1.078,6.1-0.874,9.295
		c0.188,2.973,0.888,6.343,2.101,10.108c0.796,2.475,1.673,4.919,2.632,7.331c0.567,1.432,1.617,3.8,3.149,7.105
		c1.234,2.663,2.433,5.342,3.595,8.036c0.777,1.801,1.983,4.472,3.619,8.012c1.219,2.632,2.356,5.298,3.412,7.998
		c0.57,1.46,1.423,4.052,2.557,7.777c0.677,2.215,1.527,4.807,2.552,7.777c2.13,6.18,5.126,11.688,8.948,16.556
		c-2.384-1.727-4.758-3.462-7.093-5.238c-6.807-5.159-13.376-10.575-19.396-16.528c-6.01-5.945-11.458-12.454-16.041-19.562
		c-4.587-7.105-8.24-14.832-10.692-23.113c0.862,8.613,3.865,17.021,8.089,24.666C273.557,261.084,279.042,268.028,285.254,274.168z
		 M330.154,232.692c-0.678,0.179-1.312,0.376-1.93,0.575c-1.141,0.371-2.206,0.778-3.265,1.209
		c-1.058,0.434-2.104,0.887-3.181,1.418c-1.08,0.537-2.185,1.1-3.406,1.94c1.283,0.754,2.674,1.001,4.044,1.009
		c1.373,0.001,2.729-0.29,3.993-0.8c1.262-0.513,2.438-1.25,3.421-2.209c0.633-0.622,1.186-1.334,1.613-2.142
		c1.053,0.869,2.079,1.811,3.074,2.856c-0.879-3.205-2.948-6.103-5.613-8.285c-2.656-2.179-6.055-3.641-9.464-4.12
		c-3.389-0.519-6.609-0.374-9.668-0.534c-3.069-0.167-6.073-0.567-9-2.122c0.909,1.396,2.283,2.507,3.777,3.339
		c1.505,0.831,3.143,1.383,4.785,1.771c3.305,0.766,6.547,0.876,9.515,1.35c2.956,0.43,5.694,1.367,8.344,2.818
		C328.215,231.326,329.194,231.984,330.154,232.692z M387.975,431.112c-4.458-3.951-8.349-8.396-11.673-13.337
		c-3.017-4.477-6.009-8.971-8.976-13.482c-4.477-6.805-9.383-13.29-14.719-19.455c-0.135-0.157-0.202-0.132-0.202,0.075
		c0.009,2.428,0.865,4.516,2.566,6.264c6.213,6.375,11.761,13.288,16.645,20.738c2.017,3.073,4.126,6.086,6.325,9.037
		c2.838,3.81,6.104,7.209,9.798,10.198C389.309,432.325,389.388,432.312,387.975,431.112z M396.704,422.028
		c-1.218-0.361-2.058-1.239-2.745-2.184c-0.679-0.958-1.255-2.043-1.871-3.113c-1.212-2.127-2.332-4.249-2.959-6.408
		c-0.631-2.134-0.71-4.382-0.57-6.725c0.157-2.321,0.438-4.826,0.736-7.166c0.322-2.344,0.789-4.608,1.633-6.655
		c0.845-2.047,2.069-3.921,3.723-5.272c1.622-1.339,3.888-2.187,6.168-2.777c2.284-0.567,4.698-0.767,7.128-0.13
		c-2.094-1.422-4.818-1.864-7.394-1.733c-1.302,0.073-2.578,0.253-3.866,0.58c-1.284,0.327-2.589,0.832-3.781,1.596
		c-2.388,1.517-4.141,3.803-5.307,6.244c-1.178,2.469-1.765,5.084-2.117,7.621c-0.325,2.556-0.537,4.969-0.576,7.581
		c-0.02,2.577,0.291,5.348,1.374,7.865c1.057,2.497,2.637,4.572,4.264,6.469c0.824,0.932,1.631,1.904,2.635,2.757
		C394.152,421.42,395.429,422.102,396.704,422.028z M409.885,405.276c-0.321-1.738-0.897-3.346-1.568-4.855
		c-1.361-2.984-3.012-5.807-5.153-8.309c0.698,3.206,1.545,6.263,2.288,9.297c0.74,2.985,1.225,5.926,0.618,8.419
		c-0.618,2.486-2.319,4.73-4.68,5.136c-1.188,0.227-2.58,0.016-3.93-0.562c-1.36-0.568-2.665-1.438-3.924-2.495
		c0.585,1.541,1.59,2.952,2.926,4.09c1.331,1.12,3.117,1.966,5.124,1.979c2.003,0.045,4.033-0.887,5.419-2.263
		c1.414-1.376,2.341-3.115,2.803-4.966C410.265,408.859,410.198,407.018,409.885,405.276z M428.06,391.215
		c-0.389-2.287-0.984-4.646-1.786-7.077c-2.4-7.275-5.955-13.708-10.668-19.3c-2.879-3.418-6.078-6.686-9.596-9.803
		c-0.151-0.135-0.383-0.121-0.518,0.03c-0.014,0.015-0.026,0.032-0.037,0.049c-0.357,0.58-0.813,1.096-1.367,1.551
		c-0.492,0.401-0.75,0.614-0.775,0.639c-6.269,5.551-10.255,8.886-11.96,10.005c-2.92,1.911-5.813,3.863-8.68,5.855
		c-0.128,0.091-0.155,0.067-0.08-0.071c0.326-0.583,0.694-1.134,1.104-1.654c0.513-0.652,0.908-1.269,1.184-1.852
		c1.933-4.038,4.579-7.547,7.937-10.526c0.113-0.1,0.102-0.116-0.033-0.047c-3.202,1.595-6.599,2.458-10.193,2.589
		c-0.134,0.005-0.246,0.105-0.268,0.24c-0.426,2.472-1.137,4.529-2.133,6.17c-0.771,1.266-2.226,3.261-4.366,5.987
		c-0.445,0.567-0.719,1.039-0.822,1.415c-0.154,0.542-0.168,1.106-0.042,1.692c0.119,0.564,0.047,0.746-0.216,0.545
		c-0.085-0.066-0.149-0.165-0.193-0.296c-0.874-2.591-1.556-5.23-2.044-7.918c-0.156-0.855-0.343-1.449-0.559-1.781
		c-0.373-0.567-0.906-0.948-1.598-1.142c-1.886-0.529-3.349-1.529-4.389-2.998c-2.105-2.973-3.929-6.111-5.47-9.413
		c-1.617-3.452-3.255-6.894-4.916-10.324c-1.385-2.867-3.009-5.265-4.873-7.195c-2.124-2.196-4.748-4.311-7.872-6.344
		c-1.8-1.171-3.921-2.089-6.338-2.775c-2.624-1-5.36-1.741-8.141-2.241c-4.796-0.855-9.76-0.966-14.61-0.358
		c-4.833,0.598-9.428,1.734-13.998,2.473c-2.287,0.366-4.574,0.655-6.887,0.72c-2.316,0.043-4.646,0.072-6.778-1.088
		c0.79,0.917,1.9,1.583,3.06,2.028c1.166,0.463,2.374,0.705,3.578,0.938c2.421,0.421,4.893,0.506,7.326,0.408
		c4.881-0.195,9.579-1.101,14.167-1.658c3.514-0.438,7.044-0.614,10.594-0.559c0.62,1.844,1.468,3.592,2.572,5.233
		c0.899,1.335,2.252,2.605,4.06,3.811c1.319,0.88,2.837,2.154,4.554,3.821c1.814,1.761,3.199,3.175,4.154,4.243
		c2.008,2.234,3.53,4.519,4.568,6.856c1.876,4.233,3.114,8.761,3.712,13.586c0.02,0.151,0.151,0.262,0.301,0.254
		c2.397-0.119,4.751-0.102,7.063,0.052c3.349,0.223,6.507,1.103,9.474,2.641c3.092,1.604,5.085,4.099,5.978,7.486
		c0.777,2.957,1.48,5.934,2.11,8.929c0.617,2.932,1.194,4.894,1.729,5.884c1.09,2.011,2.074,4.034,2.951,6.067
		c0.573,1.322,0.755,1.27,0.545-0.155c-0.739-5.047-0.114-9.786,1.875-14.215c1.024-2.284,2.393-4.204,4.107-5.761
		c1.682-1.532,3.673-2.874,5.973-4.027c1.748-0.877,3.28-1.497,4.596-1.861c0.671-0.185,1.305-0.183,1.903,0.005
		c0.53,0.169,1.143,0.415,1.842,0.738c2.378,1.103,5.208,1.985,8.492,2.646c1.67,0.335,3.257,0.124,4.76-0.634
		c0.799-0.404,1.145-1.029,1.039-1.875c-0.038-0.294,0.038-0.326,0.226-0.094c2.387,2.932,4.151,6.134,5.292,9.605
		c1.391,4.236,2.702,8.496,3.933,12.782c0.423,1.479,0.828,2.679,1.217,3.6c0.489,1.172,1.029,2.32,1.621,3.445
		c0.802,1.516,1.394,3.086,1.776,4.709c0.182,0.771,0.334,0.764,0.456-0.019c0.379-2.459,0.626-4.93,0.742-7.411
		C428.552,395.816,428.43,393.399,428.06,391.215z M434.23,365.815c-0.226-1.908-0.617-3.778-1.175-5.611
		c-0.533-1.745-0.803-2.636-0.813-2.674c-4.868-17.293-10.024-34.501-15.466-51.622c-0.959-3.023-1.972-5.989-3.041-8.896
		c-2.901-7.898-5.183-13.827-6.847-17.787c-2.798-6.661-5.187-13.083-7.167-19.267c-2.312-7.218-3.799-14.689-4.46-22.411
		c-0.391-4.555-0.587-6.844-0.587-6.866c-0.257-2.469-0.518-4.938-0.785-7.406c-0.551-5.088-0.939-8.197-1.161-9.328
		c-1.043-5.244-3.108-10.163-6.194-14.756c-0.743-1.1-0.586-1.247,0.47-0.442c4.442,3.396,9.427,6.648,14.953,9.756
		c0.37,0.207,0.467,0.117,0.292-0.268c-1.974-4.364-4.624-8.302-7.951-11.814c-3.039-3.208-5.216-5.771-6.532-7.688
		c-1.623-2.368-3.274-5.594-4.953-9.676c-0.765-1.855-1.678-3.506-2.74-4.953c-2.466-3.349-5.373-6.473-8.722-9.37
		c-1.918-1.657-3.451-3.617-4.601-5.879c-0.069-0.135-0.132-0.188-0.188-0.16c-0.062,0.027-0.083,0.132-0.052,0.244
		c0.962,3.28,2.041,6.52,3.238,9.718c0.376,1.006,0.88,1.842,1.513,2.51c1.272,1.347,2.807,2.588,4.605,3.722
		c0.329,0.21,0.34,0.321,0.033,0.334c-0.072,0.003-0.146-0.011-0.221-0.042c-1.736-0.686-3.479-1.35-5.23-1.992
		c-1.67-0.608-3.279-1.555-4.826-2.843c-1.714-1.422-3.143-2.807-4.286-4.154c-0.041-0.047-0.074-0.102-0.099-0.164
		c-0.175-0.417-0.262-0.401-0.259,0.047c0,0.066,0.017,0.13,0.052,0.193c1.61,2.716,3.728,4.781,6.353,6.194
		c0.893,0.482,1.601,1.009,2.124,1.579c0.097,0.107,0.165,0.226,0.202,0.357c0.135,0.461-0.014,0.559-0.447,0.296
		c-0.263-0.16-1.061-0.52-2.392-1.081c-2.929-1.241-5.741-2.702-8.436-4.385c-1.184-0.742-2.091-1.443-2.721-2.101
		c-0.802-0.84-1.48-1.781-2.035-2.824c-1.51-2.839-2.574-5.799-3.191-8.882c-0.072-0.341-0.196-0.362-0.371-0.061
		c-1.773,3.017-2.946,6.247-3.52,9.69c-0.222,1.325-0.072,2.643,0.451,3.952c0.188,0.476,0.083,0.553-0.315,0.23
		c-1.068-0.877-1.615-2.082-1.64-3.614c-0.025-1.476,0.116-2.936,0.423-4.38c0.276-1.3,0.47-2.613,0.583-3.938
		c0.014-0.159-0.062-0.301-0.183-0.343c-0.21-0.072-0.349,0.061-0.418,0.4c-0.216,1.075-0.537,2.116-0.963,3.125
		c-0.542,1.278-0.971,2.589-1.288,3.933c-0.348,1.473-0.493,2.835-0.437,4.089c0.191,4.154,2.175,7.334,5.95,9.54
		c1.247,0.727,3.553,1.762,6.917,3.106c0.777,0.313,1.313,0.649,1.607,1.006c0.388,0.47,0.671,1.067,0.846,1.79
		c0.833,3.402,2.148,7.107,3.943,11.114c3.806,8.49,8.1,16.725,12.881,24.704c3.803,6.347,6.85,13.284,9.14,20.809
		c5.551,18.24,12.369,36.522,20.451,54.846c8.18,18.544,15.669,37.363,22.467,56.458c1.692,4.743,3.495,9.4,5.409,13.971
		c0.082,0.199,0.253,0.348,0.46,0.404C433.848,366.506,434.296,366.36,434.23,365.815z M325.201,296.908
		c0.131,0.147,0.213,0.135,0.244-0.038c0.025-0.122,0.005-0.252-0.061-0.39c-2.049-4.226-3.955-8.517-5.719-12.871
		c-2.137-5.285-4.439-10.497-6.908-15.635c-1.178-2.45-2.925-5.116-5.24-7.998c-0.348-0.432-1.812-2.201-4.394-5.306
		c-1.469-1.767-2.978-3.501-4.525-5.202c-0.185-0.204-0.216-0.199-0.094,0.014c0.902,1.573,1.802,3.148,2.698,4.728
		c0.884,1.566,1.662,3.197,2.336,4.892c0.727,1.836,1.452,3.672,2.176,5.508c0.526,1.331,1.208,3.18,2.044,5.545
		c1.072,3.033,2.112,5.674,3.12,7.923c1.72,3.835,4.12,7.466,7.199,10.893C320.454,291.615,322.829,294.261,325.201,296.908z
		 M106.732,394.857c0.207,0.436,0.154,0.469-0.16,0.099c-2.353-2.795-4.859-5.53-7.519-8.205
		c-1.516-1.522-5.204-5.786-11.063-12.791c-1.582-1.895-2.693-3.545-3.332-4.949c-1.341-2.957-2.055-6.178-2.143-9.662
		c-0.16-6.397-0.551-11.136-1.175-14.216c-0.611-3.017-1.638-5.631-3.083-7.843c-0.341-0.52-1.438-2.008-3.29-4.464
		c-1.009-1.335-1.861-3.028-2.556-5.08c-0.62-1.833-0.572-3.938,0.146-6.316c0.692-2.284,1.914-4.934,3.665-7.951
		c1.839-3.171,3.536-6.413,5.089-9.728c1.664-3.55,2.568-7.496,2.712-11.838c0.044-1.338-0.075-2.34-0.357-3.008
		c-0.485-1.15-1.372-1.798-2.66-1.945c-0.548-0.063-1.491,0.045-2.829,0.324c-0.931,0.197-1.864,0.376-2.801,0.536
		c-2.309,0.395-4.588,0.415-6.838,0.061c-2.29-0.357-4.413-1.089-6.368-2.195c-3.803-2.146-6.488-5.403-8.055-9.77
		c-0.15-0.423-0.075-0.467,0.226-0.132c1.413,1.557,2.968,2.947,4.667,4.168c2.763,1.99,5.86,3.037,9.291,3.144
		c4.182,0.125,7.923-1.062,11.222-3.562c3.127-2.372,4.944-5.525,5.451-9.46c0.26-2.008-0.083-3.896-1.029-5.663
		c-0.282-0.533-0.647-0.985-1.095-1.358c-0.388-0.32-0.899-0.57-1.532-0.752c-1.394-0.404-2.835-0.526-4.323-0.366
		c-0.952,0.103-1.653,0.578-2.101,1.424c-0.066,0.128-0.089,0.121-0.071-0.023c0.272-1.958,0.83-3.76,1.673-5.404
		c2.792-5.467,6.269-10.577,10.433-15.329c0.013-0.013,0.226-0.248,0.639-0.705c2.369-2.613,3.768-5.688,4.197-9.225
		c0.332-2.744-0.871-4.027-3.609-3.849c-1.328,0.088-2.838,0.47-4.53,1.147c-4.336,1.739-8.6,3.642-12.792,5.71
		c-0.88,0.436-1.007,0.348-0.381-0.263c0.069-0.066,0.147-0.13,0.235-0.193c1.899-1.36,3.805-2.707,5.719-4.042
		c0.981-0.683,2.937-1.911,5.869-3.684c1.397-0.846,2.757-1.747,4.079-2.702c2.011-1.451,3.291-2.45,3.839-2.998
		c2.196-2.196,3.127-5.02,2.792-8.473c-0.157-1.635-0.68-2.804-1.57-3.506c-0.789-0.62-1.687-0.642-2.693-0.066
		c-0.246,0.139-0.559,0.052-0.698-0.194c-0.012-0.021-0.022-0.042-0.031-0.064c-1.491-3.781-1.184-6.924,0.921-9.427
		c0.99-1.175,2.541-2.187,4.652-3.036c1.705-0.683,3.503-1.247,5.395-1.692c0.639-0.15,1.258-0.404,1.856-0.761
		c0.533-0.316,1.028-0.75,1.485-1.302c1.827-2.19,2.553-4.674,2.18-7.453c-0.31-2.315-1.38-3.951-3.21-4.906
		c-1.281-0.667-3.043-0.976-5.287-0.926c-2.607,0.056-5.143,0.583-7.608,1.579c-0.141,0.056-0.235,0.055-0.282-0.005
		c-0.053-0.071-0.003-0.195,0.111-0.277c0.002-0.002,0.005-0.003,0.007-0.005c3.321-2.318,6.777-4.417,10.367-6.297
		c1.116-0.586,3.084-1.95,5.907-4.093c2.469-1.874,4.45-3.207,5.945-3.999c2.208-1.172,4.563-2.195,7.063-3.069
		c1.651-0.58,3.359-1.425,5.122-2.538c4.396-2.773,5.869-6.656,4.422-11.65c-0.554-1.914-1.922-2.998-4.103-3.252
		c-4.107-0.476-8.081,0.033-11.922,1.527c-0.73,0.282-0.818,0.19-0.263-0.277c0.066-0.053,0.138-0.103,0.216-0.15
		c2.328-1.366,4.682-2.688,7.063-3.966c6.686-3.597,13.838-5.284,21.457-5.061c3.568,0.1,7.193,0.266,10.874,0.498
		c0.174,0.012,0.324-0.12,0.335-0.293c0.003-0.046-0.004-0.092-0.021-0.135c-0.498-1.3-0.875-2.605-1.133-3.915
		c-0.266-1.353-0.332-2.701-0.197-4.041c0.248-2.434,0.923-4.715,2.025-6.842c0.974-1.873,2.47-3.654,4.488-5.343
		c3.327-2.782,7.054-4.936,11.18-6.462c0.454-0.169,0.918-0.399,1.391-0.691c0.551-0.338,1.02-0.573,1.405-0.705
		c0.643-0.219,0.719-0.092,0.23,0.381c-3.045,2.945-5.27,6.272-6.673,9.981c-0.984,2.61-0.498,4.2,1.457,4.77
		c1.065,0.313,2.395,0.238,3.99-0.226c3.03-0.88,5.714-2.433,8.055-4.657c2.553-2.428,4.726-5.16,6.518-8.196
		c0.927-1.573,1.858-3.145,2.791-4.718c2.767-4.662,6.534-8.293,11.302-10.893c0.429-0.232,0.483-0.166,0.16,0.197
		c-0.912,1.04-1.656,2.19-2.232,3.449c-0.642,1.4-0.865,2.713-0.667,3.938c0.254,1.57,1.028,2.79,2.322,3.661
		c1.103,0.739,2.406,1.012,3.91,0.818c2.726-0.348,5.046-1.743,6.96-4.187c2.673-3.418,5.509-6.69,8.51-9.817
		c0.366-0.382,0.445-0.367,0.235,0.047c-0.67,1.313-1.397,2.596-2.18,3.849c-0.451,0.724-0.672,1.31-0.663,1.758
		c0.019,0.702,0.338,1.31,0.959,1.823c0.523,0.432,1.101,0.736,1.734,0.912c0.511,0.141,1.147,0.169,1.908,0.085
		c2.5-0.282,4.828-1.098,6.983-2.448c2.82-1.77,5.273-4.168,7.359-7.195c1.053-1.523,2.494-3.056,4.323-4.601
		c2.381-2.008,4.773-4.002,7.176-5.982c0.624-0.514,1.155-1.068,1.593-1.664c0.15-0.201,0.235-0.175,0.254,0.075
		c0.291,3.891,0.968,7.597,2.03,11.119c0.047,0.163,0.125,0.179,0.235,0.047c2.494-3.067,4.986-6.04,7.477-8.919
		c1.144-1.322,2.354-2.58,3.633-3.774c2.838-2.657,6.175-4.353,10.009-5.089c1.701-0.329,2.724-0.498,3.069-0.507
		c0.592-0.016,0.587,0.088-0.014,0.31c-2.453,0.896-4.184,2.533-5.193,4.911c-0.78,1.836-1.366,3.794-1.757,5.874
		c-0.063,0.332,0.023,0.376,0.258,0.132c0.492-0.52,1.051-0.981,1.678-1.382c0.486-0.31,1.14-0.612,1.964-0.907
		c2.581-0.924,5.208-1.699,7.881-2.326c3.227-0.752,5.171-1.227,5.832-1.424c2.318-0.686,4.203-1.368,5.653-2.044
		c1.639-0.764,3.186-1.686,4.643-2.763c0.245-0.182,0.299-0.136,0.165,0.136c-2.162,4.311-4.592,8.471-7.293,12.481
		c-2.249,3.34-4.123,6.438-5.62,9.295c-0.893,1.698-1.48,3.625-1.762,5.78c-0.351,2.654-0.498,5.335-0.442,8.045
		c0.005,0.236-0.18,0.432-0.413,0.438c-0.011,0-0.022,0-0.034-0.001c-1.313-0.066-2.495-0.034-3.548,0.094
		c-8.322,0.997-16.49,2.373-24.513,4.1c-5.506,1.589-10.917,3.438-16.21,5.554c-13.724,5.436-26.622,12.666-38.539,21.143
		c-5.951,4.252-11.668,8.818-17.107,13.703c-5.435,4.887-10.601,10.066-15.522,15.469c-4.911,5.412-9.579,11.048-13.973,16.897
		c-4.379,5.861-8.504,11.915-12.371,18.136c-15.523,24.875-26.725,52.391-34.022,80.978c-4.39,17.267-7.194,34.947-8.595,52.854
		c-0.088,4.808-0.077,9.37,0.044,13.659c0.135,4.684,0.678,9.516,1.631,14.497c1.494,7.81,4.369,15.069,8.623,21.777
		C105.039,391.544,105.934,393.168,106.732,394.857z M251.541,102.455c-0.096,0.123-0.209,0.227-0.385,0.218
		c0.204,0.142,0.497,0.025,0.698-0.076l0.202-0.122c1.914,0.031,3.859-0.505,5.593-1.45c0.958-0.521,1.864-1.192,2.655-1.937
		c0.792-0.741,1.484-1.524,2.158-2.262c1.318-1.498,2.7-2.676,4.393-3.738c1.659-1.068,3.497-1.972,5.307-3.054
		c-2.098,0.165-4.158,0.612-6.147,1.441c-0.992,0.413-1.952,0.945-2.851,1.589c-0.906,0.645-1.705,1.43-2.409,2.205
		c-1.417,1.582-2.564,3.064-4.1,4.241c-1.006,0.8-2.121,1.482-3.322,2.084c0.067-0.057,0.137-0.11,0.204-0.168
		c0.706-0.598,1.297-1.32,1.821-2.073c1.047-1.518,1.759-3.195,2.349-4.845c0.589-1.657,1.056-3.304,1.559-4.922
		c0.504-1.623,1.053-3.197,1.809-4.834c-1.504,1.02-2.618,2.548-3.479,4.118c-0.866,1.583-1.488,3.243-2.065,4.863
		c-0.576,1.623-1.103,3.213-1.754,4.736c-0.326,0.761-0.678,1.514-1.107,2.234l-0.314,0.556l-0.362,0.527l-0.366,0.547
		c-0.013,0.019-0.027,0.037-0.041,0.056c-0.05,0.02-0.096,0.043-0.146,0.063C251.476,102.454,251.508,102.452,251.541,102.455z
		 M234.831,104.262c0.626-1.256,1.124-2.454,1.648-3.626c0.52-1.171,1.035-2.316,1.577-3.451c0.54-1.135,1.107-2.256,1.692-3.396
		c0.583-1.145,1.203-2.285,1.789-3.558c-1.269,0.604-2.342,1.502-3.272,2.521c-0.928,1.023-1.694,2.191-2.292,3.438
		c-0.596,1.247-1.025,2.577-1.238,3.942C234.525,101.495,234.501,102.894,234.831,104.262z M192.311,126.408
		c2.528-4.113,6.355-6.491,10.303-9c1.974-1.265,3.992-2.576,5.804-4.251c0.894-0.852,1.735-1.8,2.344-2.908
		c0.6-1.1,0.986-2.36,0.862-3.571c-0.773,2.302-2.517,3.781-4.352,5.075c-1.873,1.283-3.901,2.432-5.902,3.709
		c-1.995,1.275-4.008,2.7-5.685,4.518C194.026,121.777,192.658,124,192.311,126.408z M184.691,128.827
		c0.65-1.529,1.422-2.825,2.257-4.131c0.833-1.301,1.714-2.604,2.495-4.042c0.783-1.453,1.42-3.05,1.647-4.763
		c0.232-1.688-0.003-3.569-1.023-4.917c0.092,1.662-0.234,3.106-0.739,4.502c-0.51,1.392-1.186,2.732-1.916,4.077
		c-0.737,1.363-1.521,2.781-2.094,4.342C184.75,125.441,184.377,127.176,184.691,128.827z M156.061,133.736
		c0.481,1.425,1.25,2.772,2.292,3.867c1.036,1.09,2.343,1.946,3.79,2.261c-0.936-1.136-1.704-2.215-2.339-3.353
		c-0.633-1.134-1.144-2.301-1.556-3.515c-0.412-1.213-0.719-2.467-0.955-3.767c-0.238-1.305-0.376-2.643-0.516-4.107
		c-0.794,1.246-1.183,2.711-1.292,4.19C155.38,130.795,155.581,132.309,156.061,133.736z M133.663,147.018
		c1.431-0.134,2.728-0.204,4.006-0.152c1.273,0.05,2.51,0.198,3.728,0.453c1.218,0.255,2.41,0.615,3.597,1.077
		c1.191,0.464,2.352,1.045,3.612,1.738c-0.544-1.34-1.547-2.463-2.726-3.323c-1.185-0.863-2.57-1.453-4.011-1.753
		c-1.441-0.299-2.947-0.31-4.377,0.007C136.066,145.382,134.699,146.01,133.663,147.018z M108.416,176.351
		c2.28-1.115,4.438-2.396,6.68-3.1c1.115-0.357,2.237-0.568,3.345-0.581c1.113-0.014,2.297,0.166,3.575,0.288
		c2.614,0.289,5.382-0.109,7.792-1.198c0.284-0.127,0.564-0.267,0.84-0.414c-0.919,0.798-1.869,1.549-2.855,2.256
		c-2.152,1.556-4.449,2.936-6.74,4.396c-2.289,1.458-4.595,2.985-6.712,4.798c-1.048,0.927-2.047,1.887-2.96,2.97
		c-0.44,0.561-0.864,1.156-1.15,1.826c-0.29,0.664-0.426,1.407-0.316,2.093c0.3-1.369,1.253-2.306,2.268-3.118
		c1.048-0.807,2.153-1.581,3.257-2.322c2.232-1.469,4.551-2.831,6.854-4.298c2.296-1.468,4.601-3.027,6.65-4.945
		c1.679-1.568,3.191-3.388,4.232-5.427c0.951-0.862,1.749-1.869,2.303-2.996c-1.897,1.692-4.044,2.82-6.305,3.477
		c-2.27,0.657-4.592,0.856-6.941,0.602c-1.205-0.11-2.507-0.278-3.892-0.175c-1.386,0.109-2.723,0.509-3.918,1.087
		C112.014,172.743,110.12,174.482,108.416,176.351z M96.337,224.449c2.063-1.46,3.805-3.323,5.388-5.259
		c1.58-1.946,2.989-3.995,4.369-6.025c1.381-2.032,2.73-4.051,4.181-5.991c1.448-1.947,3.013-3.79,4.789-5.578
		c-2.327,0.994-4.377,2.594-6.163,4.388c-1.789,1.805-3.319,3.824-4.717,5.885c-1.399,2.065-2.672,4.177-3.94,6.279
		C98.979,220.255,97.701,222.332,96.337,224.449z M91.511,250.703c0.984-1.002,1.96-2.009,2.925-3.054
		c0.963-1.049,1.93-2.108,2.835-3.326c-1.457,0.43-2.774,1.128-4.008,1.94c-1.233,0.815-2.367,1.77-3.4,2.823
		c-1.031,1.054-1.964,2.207-2.756,3.455c-0.788,1.25-1.462,2.579-1.867,4.042c1.198-0.929,2.239-1.916,3.27-2.898
		C89.537,252.699,90.526,251.704,91.511,250.703z"/>
</g>
</svg>
